<?xml version="1.0" encoding="utf-8"?>
<svg xmlns="http://www.w3.org/2000/svg" viewBox="0 0 261 111">
  <g fill="#c6c6c6">
    <path d="M138.2 67.3v10.2h2.3c.3 0 .4 0 .4-.4v-6.6a.7.7 0 0 1 .2.3l4 6.4a.6.6 0 0 0 .5.3h3.2v-10c0-.2-.1-.2-.3-.2h-2c-.3 0-.4 0-.4.4v6.6a.7.7 0 0 1-.2-.3l-4-6.4a.5.5 0 0 0-.5-.3h-3.2m23 10.2V67.3h-2.7v7a1 1 0 0 1-.3-.3l-4-6.5a.5.5 0 0 0-.4-.2h-3.2v10.2h2.6v-7a.7.7 0 0 1 .3.3l4 6.5.2.2h3.4m30.8-7 .3.3 3.9 6.5a.4.4 0 0 0 .4.2h3c.2 0 .3 0 .3-.3v-9.7c0-.2 0-.3-.3-.2h-2c-.3 0-.4 0-.4.4v6.6a1 1 0 0 1-.3-.4l-3.9-6.4a.5.5 0 0 0-.4-.2h-3.3v10.2h2.7v-7m-33.7-6.6-3.4-4.2h.3a2.7 2.7 0 0 0 2.4-2.3 5.3 5.3 0 0 0 0-1.2 2.4 2.4 0 0 0-2.2-2.5 6.4 6.4 0 0 0-1 0h-6.6v10.2h2.8v-7.7c0-.3.1-.4.4-.4h1.1a16.4 16.4 0 0 1 1.8 0c.7.1 1 .5 1 1.4a1 1 0 0 1-1.1 1h-2.8a.5.5 0 0 0 0 .2l3.7 5.3a.3.3 0 0 0 .3.2h3.3m-18.1-4.2h5.5c.3 0 .4 0 .4-.3V58c0-.3-.1-.3-.4-.3h-5.3l-.2-.2v-1.7h6.4v-2.1h-9.2v10.2h9.2v-2.1H140v-2.1m-3.2 15.7h-6.4v-2.1h5.9v-2h-5.9v-2h6.4v-2h-9.1v10.2h9.1v-2m30.3-.5v2c0 .2.1.3.3.3l3.3.4a5.4 5.4 0 0 0 2.8-.6 3 3 0 0 0 1.8-3 2.7 2.7 0 0 0-2-2.5l-1.8-.7-1-.4a.6.6 0 0 1-.4-.6.6.6 0 0 1 .5-.6 1.5 1.5 0 0 1 .5-.1h1.6l1.9.2v-2.2a1 1 0 0 0-.3-.1l-3.2-.3a5 5 0 0 0-2.6.7 2.7 2.7 0 0 0-1.4 2.5 2.5 2.5 0 0 0 1.4 2.4 13.6 13.6 0 0 0 1.4.5l1.8.7a.8.8 0 0 1 .6.9 1 1 0 0 1-1 .8 12 12 0 0 1-2 0l-2.2-.4M131 60.6l-2.8-6.9c0-.1-.1-.2-.3-.2h-2.7v.3l4.2 9.8a.3.3 0 0 0 .4.2h2.5a.4.4 0 0 0 .4-.3l4.1-9.6.2-.4h-2.8a.4.4 0 0 0-.4.3l-1.6 4.1-1.1 2.7m32-2.7-2.5-4a.5.5 0 0 0-.5-.4h-2.9l.2.4 4.1 6a1 1 0 0 1 .2.5v3.4h2.8v-3.4a1 1 0 0 1 .2-.5l4.2-6 .2-.4h-2.9a.6.6 0 0 0-.6.3l-2.5 4.1m-.2 9.3v10.2h2.9V67.3h-2.9M86 77.6H72a15.3 15.3 0 0 1-4.2-.4 7.5 7.5 0 0 1-5.6-5.9 6.6 6.6 0 0 1 .6-4.5 97 97 0 0 1 3.4-6.3L78.8 38a12.2 12.2 0 0 1 2.4-3.2 7.3 7.3 0 0 1 5.5-1.8 7.5 7.5 0 0 1 6.4 4.1l8.6 15 7.8 13.8a8.6 8.6 0 0 1 1.1 3 7.4 7.4 0 0 1-3.6 7.3 9.5 9.5 0 0 1-4.3 1.3h-4.5c-4.1.1-8.2 0-12.3 0M76.3 62h2.4a.5.5 0 0 0 .6-.3l4.5-7.9 5.8-10.3a5 5 0 0 0 .8-3.5 4 4 0 0 0-3.1-3.3A4 4 0 0 0 83 38a7.6 7.6 0 0 0-.8 1.2l-12.9 23v.1c.7 0 1.5-.3 2.3-.3a1 1 0 0 0 .9-.5l11.9-21.1a4.6 4.6 0 0 1 .6-.9 1.7 1.7 0 0 1 2-.3 1.7 1.7 0 0 1 1 1.9 4.9 4.9 0 0 1-.5 1.2l-11 19.3-.2.4m20.4 12a7.4 7.4 0 0 1-1.6-2 .6.6 0 0 0-.7-.4H70.2a4.4 4.4 0 0 1-.7 0 1.8 1.8 0 0 1-1.5-1.7 1.6 1.6 0 0 1 1.1-1.7 3.2 3.2 0 0 1 1-.2h22.7l-.2-.3-1-2a.5.5 0 0 0-.6-.2H70.3a5.5 5.5 0 0 0-2.3.5 4.2 4.2 0 0 0 .7 7.9 9 9 0 0 0 2 .2h26m-7-23.6-1.2 2.2a.5.5 0 0 0 0 .6L98 70.1l1.2 2a4 4 0 0 0 3.4 2 4.3 4.3 0 0 0 4.3-4.3 5.3 5.3 0 0 0-.8-2.7L93 44l-.2-.2v.1a8.5 8.5 0 0 1-1 2.6.6.6 0 0 0 0 .6L104 68.3a5.6 5.6 0 0 1 .5 1 1.7 1.7 0 0 1-.8 2 1.6 1.6 0 0 1-2.1-.3 6.7 6.7 0 0 1-.7-1L90 51l-.2-.5M83.2 62h6.3l-3.2-5.5-3 5.5"/>
    <path d="M138.2 67.3h3.3a.5.5 0 0 1 .4.3l4 6.4a.7.7 0 0 0 .2.3v-6.6c0-.3 0-.4.4-.4h2c.2 0 .3 0 .3.2v9.8a1.3 1.3 0 0 1 0 .2h-3.2a.6.6 0 0 1-.6-.3l-3.9-6.4a.6.6 0 0 0-.2-.3v6.6c0 .3 0 .4-.4.4h-2.3V67.3m22.9 10.2h-3.4l-.3-.2-3.9-6.5a.7.7 0 0 0-.3-.3v7h-2.6V67.3h3.2a.5.5 0 0 1 .5.3l3.9 6.4a1 1 0 0 0 .3.3v-7h2.6v10.2m30.9-7v7h-2.8V67.3h3.3a.5.5 0 0 1 .4.2l4 6.4a1 1 0 0 0 .2.4v-6.7c0-.3.1-.4.4-.4h2c.2 0 .3.1.3.3v9.7c0 .2 0 .3-.3.3h-3a.4.4 0 0 1-.4-.2l-4-6.5-.1-.3h-.1m-9.9 7.4a7.5 7.5 0 0 1-3-.6 4.7 4.7 0 0 1-2.8-3.8 7 7 0 0 1 0-2.9 4.6 4.6 0 0 1 3.5-3.5 8.4 8.4 0 0 1 4.7 0 4.7 4.7 0 0 1 3.5 4 7 7 0 0 1-.1 3 4.9 4.9 0 0 1-4.4 3.7H182m-3-5.8c0 1.5.4 2.4 1.3 2.9a3.8 3.8 0 0 0 3.6 0 2.6 2.6 0 0 0 1.4-2.3 3 3 0 0 0-1.4-3 3.7 3.7 0 0 0-3.5 0A2.6 2.6 0 0 0 179 72m-63.3 5.5v-9.8c0-.4 0-.4.4-.4h6.2a4.2 4.2 0 0 1 4.2 3.5 6.4 6.4 0 0 1-.3 4.2 3.9 3.9 0 0 1-3.6 2.5h-6.8a.7.7 0 0 1-.1 0m2.8-2.3a.5.5 0 0 0 .1 0h3a2.2 2.2 0 0 0 2.2-2 5.3 5.3 0 0 0 0-1.2 2.3 2.3 0 0 0-2.1-2.4h-3.2v5.6m39.7-11.3H155a.3.3 0 0 1-.2-.2l-3.7-5.3a.5.5 0 0 1 0-.2h2.7a1 1 0 0 0 1-1c.1-.8-.2-1.3-1-1.4a16.2 16.2 0 0 0-1.7 0H151c-.3 0-.4 0-.4.3V64h-2.8V53.7h6.5a6.4 6.4 0 0 1 1 0 2.4 2.4 0 0 1 2.2 2.5 5.3 5.3 0 0 1 0 1.2 2.7 2.7 0 0 1-2.4 2.3h-.3l3.4 4.2M140 59.7v2h6.5V64h-9.1V53.7h9v2h-6.3v1.8l.2.2h5.3c.3 0 .4 0 .4.4v1.3c0 .2-.1.3-.3.3H140m-3 15.7v2.1h-9.2V67.3h9.1v2.1h-6.4v1.9h5.9v2h-5.9v2.1h6.4M127.5 64h-2.3c-.7 0-.7 0-1-.7l-.5-1.3a.4.4 0 0 0-.3-.3h-4a.4.4 0 0 0-.2.3l-.8 1.9h-3l.1-.3 4-9.6a.4.4 0 0 1 .5-.3h3a.4.4 0 0 1 .4.2l4 9.8.1.2m-4.7-4.2-1.3-3.7-1.4 3.7h2.7M167.2 75l2.3.4a12 12 0 0 0 2 0 1 1 0 0 0 1-.8.8.8 0 0 0-.6-.9l-2-.6a13.7 13.7 0 0 1-1.3-.6 2.5 2.5 0 0 1-1.4-2.4 2.7 2.7 0 0 1 1.4-2.5 5 5 0 0 1 2.6-.6l3.2.2a1 1 0 0 1 .3 0v2.3l-1.9-.2h-1.6a1.5 1.5 0 0 0-.5.1.6.6 0 0 0-.5.6.6.6 0 0 0 .5.6l1 .4 1.8.7a2.7 2.7 0 0 1 2 2.6 3 3 0 0 1-2 3 5.4 5.4 0 0 1-2.7.5l-3.3-.3c-.2 0-.3-.1-.3-.4V75M131 60.8l1.2-2.8 1.6-4a.4.4 0 0 1 .4-.4h2.8l-.2.4-4 9.6a.4.4 0 0 1-.5.3h-2.5a.3.3 0 0 1-.4-.2l-4.1-9.8-.1-.2h2.8c.2 0 .3 0 .3.2l2.8 6.9m32-2.8 2.5-4a.6.6 0 0 1 .6-.4h3l-.3.4-4.2 6a1 1 0 0 0-.1.5v3.4h-2.9v-3.4a1.1 1.1 0 0 0-.2-.6l-4-5.9-.3-.3h2.9a.5.5 0 0 1 .5.2l2.5 4.1m-.1 9.3h2.8v10.2H163V67.3"/>
  </g>
</svg>